<?xml version="1.0" encoding="utf-8"?>
<svg version="1.0" id="Layer_1" xmlns="http://www.w3.org/2000/svg" xmlns:xlink="http://www.w3.org/1999/xlink" x="0px" y="0px"
	 viewBox="0 0 300 280" enable-background="new 0 0 300 280" xml:space="preserve">
<g>
	<polygon fill="#D0234A" points="145.14,170.74 154.75,170.74 154.75,218.52 145.14,218.52 145.14,170.74 	"/>
	<path fill="#D0234A" d="M127.71,166.96c-1.65-0.9-6.55-3.34-12.24,1.62l-30.61,25.83l7.76,6.16l9.5-8.43
		c4.46,4.26,7.24,5.59,8.42,6.21c1.17,0.66,3.78,2.28,9.77,3.74l-1.98,12.54l9.37,3.21l5.26-39.71
		C134.05,170.68,129.36,167.86,127.71,166.96z M114.66,190.81c-2.55-1.35-5.35-3.47-6.06-4.43l12.53-11.18
		c0.54-0.47,1.41-0.74,2.23-0.29c0.82,0.45,1.07,1.33,0.96,2.03l-2.66,16.58C120.47,193.45,117.17,192.23,114.66,190.81z"/>
	<path fill="#D0234A" d="M166.79,178.14l5.26,39.71l9.37-3.21l-1.98-12.54c5.99-1.46,8.6-3.08,9.77-3.74
		c1.18-0.63,3.96-1.96,8.42-6.21l9.5,8.43l7.76-6.16l-30.61-25.83c-5.69-4.96-10.59-2.52-12.24-1.62
		C170.37,167.86,165.68,170.68,166.79,178.14z M178.07,193.53l-2.66-16.58c-0.11-0.71,0.14-1.58,0.96-2.03
		c0.82-0.46,1.69-0.19,2.23,0.29l12.53,11.18c-0.71,0.96-3.51,3.09-6.06,4.43C182.57,192.23,179.26,193.45,178.07,193.53z"/>
	<path fill="#D0234A" d="M134.72,125.14c-2.37-0.68-4.16-0.81-5.43-1.09c-1.27-0.27,0.63-1.09,1.27-1.18
		c0.63-0.09,5.52-1.63,7.23-2.8c1.72-1.18,7.51-4.43,8.32-5.7c0.81-1.27,3.62-0.54,3.98-0.54c0,0,0.18,0.45-0.54,1.18
		c-0.72,0.72-0.72,1.54-0.99,2.44s-0.81,1.63-1.81,2.26c-0.99,0.63-4.43,2.71-3.98,5.61c0.45,2.89,3.26,6.33,4.97,7.23
		c1.72,0.9,8.28,6,9.4,7.05c1.54,1.45,2.53,4.16,3.53,7.14c1,2.98,4.16,4.43,6.33,4.43s5.61-0.09,6.96,1.99c0,0-0.36,0.36-1.27,0.27
		c-0.9-0.09-4.34,1.09-5.25,1.54c-0.9,0.45-4.25,0.63-7.05,0.36c-2.8-0.27-4.79-0.27-5.88,0.9c-1.09,1.18-2.08,1.99-3.98,2.17
		c-1.9,0.18-12.93-0.45-15.19-1.72c-2.6-1.46,2.35-1.54,3.17-1.81s6.51-1.18,8.14-1.99c1.32-0.66,4.97-5.15,6.69-5.7
		c1.72-0.54,1.54-3.35-0.09-4.25c-1.63-0.9-2.35,0.63-3.62-1.09c-1.27-1.72-0.09-2.44-1.27-4.16c-1.18-1.72-5.24-4.61-7.05-7.14
		C139.51,128.03,136.62,125.68,134.72,125.14z"/>
	<path fill="#D0234A" d="M150,61.48c-40.75,0-73.78,33.03-73.78,73.78c0,16.97,5.74,32.59,15.37,45.06l2.37-1.8
		c-5.48-7.08-9.58-15.24-11.89-24.09c0.01-0.95,2.06-0.53,3.24-0.27c1.22,0.27,9.63,2.98,12.89,2.44c3.26-0.54,7.73-2.03,10.99-3.53
		c3.26-1.49,7.46-1.76,8.82-1.63c1.36,0.14-0.68-1.49-1.9-2.03c-1.22-0.54-4.48,0-7.87,0c-3.39,0,6.24-9.77,7.05-10.31
		c0.81-0.54,1.63-1.09,0.54-1.09s-7.46,3.53-9.63,4.2c-2.17,0.68-6.78,0.54-9.22,0.68s-8.41,4.07-10.17,4.88
		c-1.76,0.81-5.76,1.88-5.76,1.88s0.88-11.78,4.81-17.34c3.93-5.56,9.36-11.12,11.39-10.17s0,2.85,0.95,3.8
		c0.95,0.95,2.31,0.81,2.31,2.98s0.54,3.26-2.31,6.37c-2.85,3.12-3.8,5.29-1.09,4.34c2.71-0.95,9.22-2.98,10.99-3.53
		c1.76-0.54,5.43-4.48,7.46-5.56s11.26-10.44,13.16-11.39c1.9-0.95,5.29-3.53,6.24-5.02s3.26-4.61,5.29-5.7s8.54-5.02,9.77-6.92
		c1.22-1.9,2.85-5.15,3.66-5.02c0.81,0.14,3.26,1.36,4.34,2.58c1.09,1.22,0.81,2.58,1.49,3.66s2.17,2.71,4.2,3.39
		c2.03,0.68,7.6,5.02,6.37,5.56c-1,0.44-4.75-2.31-6.37-2.44c-1.63-0.14-2.71,0-2.31,0.95c0.41,0.95,5.15,5.02,6.24,6.51
		c1.09,1.49,1.09,5.02,2.03,7.87c0.95,2.85,3.12,3.12,3.39,7.6c0.27,4.48,4.2,8.68,5.83,10.04c1.63,1.36,3.93,3.39,5.29,3.53
		c1.36,0.14,1.09-0.81,3.26,0c2.17,0.81,1.76,0,0.81-1.76s0.95-2.31,0.95-2.31c4.75-0.27,6.65,4.88,6.51,9.22
		c-0.14,4.34-3.12,3.26-4.75,6.65c-1.63,3.39,0,2.44,0.81,1.76s6.51-0.54,9.36-0.81s5.29-3.93,6.37-4.88
		c1.09-0.95,2.03-0.95,2.98-0.41c0.95,0.54-0.14,3.53,0.41,3.93c0.54,0.41,3.53-1.76,4.61-2.58c1.09-0.81,2.58-0.81,2.58-0.81
		c0.01-0.02,0.02-0.04,0.03-0.06c-2.3,9.2-6.51,17.68-12.21,25l2.37,1.8c9.71-12.49,15.51-28.18,15.51-45.23
		C223.78,94.51,190.75,61.48,150,61.48z M209.27,134.09c-1.76-1.36-6.37-6.78-8.68-7.46c-2.31-0.68-8.95-5.15-10.99-6.1
		s-4.48-4.2-4.88-5.83c-0.41-1.63-4.2-6.78-6.24-7.19c-2.03-0.41-11.26-4.48-12.61-5.02c-1.36-0.54-6.1-3.53-8.14-5.15
		c-2.03-1.63-4.14-1.76-4.81-1.49c-0.68,0.27-2.78,4.07-3.59,5.29c-0.81,1.22-8.68,6.1-9.63,6.37c-0.95,0.27-3.53,1.9-4.88,3.12
		c-1.71,1.54-2.17,3.66-4.34,5.02c-2.04,1.27-11.26,7.6-12.89,8.68c-1.63,1.09-4.2,4.75-6.1,4.61c-1.9-0.14-8.54-2.98-10.04-4.61
		c-1.49-1.63-4.48-3.12-4.48-3.12c-3.07,0-12.85,9.18-16.98,13.21c1.72-36.12,32.4-64.9,70.01-64.9c36.69,0,66.77,27.39,69.82,62.26
		C217.07,136.43,210.97,135.39,209.27,134.09z"/>
</g>
</svg>
